<svg xmlns="http://www.w3.org/2000/svg" width="300" height="300" viewBox="0 0 300 300"><rect width="300" height="300" fill="#ffffff"/><rect x="77.586207" y="10.000000" width="9.655172" height="9.655172" rx="2.413793" ry="2.413793" fill="#c41717" /><rect x="87.241379" y="10.000000" width="9.655172" height="9.655172" rx="2.413793" ry="2.413793" fill="#c41717" /><rect x="96.896552" y="10.000000" width="9.655172" height="9.655172" rx="2.413793" ry="2.413793" fill="#c41717" /><rect x="106.551724" y="10.000000" width="9.655172" height="9.655172" rx="2.413793" ry="2.413793" fill="#c41717" /><rect x="116.206897" y="10.000000" width="9.655172" height="9.655172" rx="2.413793" ry="2.413793" fill="#c41717" /><rect x="125.862069" y="10.000000" width="9.655172" height="9.655172" rx="2.413793" ry="2.413793" fill="#c41717" /><rect x="135.517241" y="10.000000" width="9.655172" height="9.655172" rx="2.413793" ry="2.413793" fill="#c41717" /><rect x="145.172414" y="10.000000" width="9.655172" height="9.655172" rx="2.413793" ry="2.413793" fill="#c41717" /><rect x="154.827586" y="10.000000" width="9.655172" height="9.655172" rx="2.413793" ry="2.413793" fill="#c41717" /><rect x="164.482759" y="10.000000" width="9.655172" height="9.655172" rx="2.413793" ry="2.413793" fill="#c41717" /><rect x="174.137931" y="10.000000" width="9.655172" height="9.655172" rx="2.413793" ry="2.413793" fill="#c41717" /><rect x="183.793103" y="10.000000" width="9.655172" height="9.655172" rx="2.413793" ry="2.413793" fill="#c41717" /><rect x="193.448276" y="10.000000" width="9.655172" height="9.655172" rx="2.413793" ry="2.413793" fill="#c41717" /><rect x="203.103448" y="10.000000" width="9.655172" height="9.655172" rx="2.413793" ry="2.413793" fill="#c41717" /><rect x="212.758621" y="10.000000" width="9.655172" height="9.655172" rx="2.413793" ry="2.413793" fill="#c41717" /><rect x="77.586207" y="19.655172" width="9.655172" height="9.655172" rx="2.413793" ry="2.413793" fill="#c41717" /><rect x="87.241379" y="19.655172" width="9.655172" height="9.655172" rx="2.413793" ry="2.413793" fill="#c41717" /><rect x="96.896552" y="19.655172" width="9.655172" height="9.655172" rx="2.413793" ry="2.413793" fill="#c41717" /><rect x="106.551724" y="19.655172" width="9.655172" height="9.655172" rx="2.413793" ry="2.413793" fill="#c41717" /><rect x="116.206897" y="19.655172" width="9.655172" height="9.655172" rx="2.413793" ry="2.413793" fill="#c41717" /><rect x="125.862069" y="19.655172" width="9.655172" height="9.655172" rx="2.413793" ry="2.413793" fill="#c41717" /><rect x="135.517241" y="19.655172" width="9.655172" height="9.655172" rx="2.413793" ry="2.413793" fill="#c41717" /><rect x="145.172414" y="19.655172" width="9.655172" height="9.655172" rx="2.413793" ry="2.413793" fill="#c41717" /><rect x="154.827586" y="19.655172" width="9.655172" height="9.655172" rx="2.413793" ry="2.413793" fill="#c41717" /><rect x="164.482759" y="19.655172" width="9.655172" height="9.655172" rx="2.413793" ry="2.413793" fill="#c41717" /><rect x="174.137931" y="19.655172" width="9.655172" height="9.655172" rx="2.413793" ry="2.413793" fill="#c41717" /><rect x="183.793103" y="19.655172" width="9.655172" height="9.655172" rx="2.413793" ry="2.413793" fill="#c41717" /><rect x="193.448276" y="19.655172" width="9.655172" height="9.655172" rx="2.413793" ry="2.413793" fill="#c41717" /><rect x="203.103448" y="19.655172" width="9.655172" height="9.655172" rx="2.413793" ry="2.413793" fill="#c41717" /><rect x="212.758621" y="19.655172" width="9.655172" height="9.655172" rx="2.413793" ry="2.413793" fill="#c41717" /><rect x="77.586207" y="29.310345" width="9.655172" height="9.655172" rx="2.413793" ry="2.413793" fill="#c41717" /><rect x="87.241379" y="29.310345" width="9.655172" height="9.655172" rx="2.413793" ry="2.413793" fill="#c41717" /><rect x="96.896552" y="29.310345" width="9.655172" height="9.655172" rx="2.413793" ry="2.413793" fill="#c41717" /><rect x="106.551724" y="29.310345" width="9.655172" height="9.655172" rx="2.413793" ry="2.413793" fill="#c41717" /><rect x="116.206897" y="29.310345" width="9.655172" height="9.655172" rx="2.413793" ry="2.413793" fill="#c41717" /><rect x="125.862069" y="29.310345" width="9.655172" height="9.655172" rx="2.413793" ry="2.413793" fill="#c41717" /><rect x="135.517241" y="29.310345" width="9.655172" height="9.655172" rx="2.413793" ry="2.413793" fill="#c41717" /><rect x="145.172414" y="29.310345" width="9.655172" height="9.655172" rx="2.413793" ry="2.413793" fill="#c41717" /><rect x="154.827586" y="29.310345" width="9.655172" height="9.655172" rx="2.413793" ry="2.413793" fill="#c41717" /><rect x="164.482759" y="29.310345" width="9.655172" height="9.655172" rx="2.413793" ry="2.413793" fill="#c41717" /><rect x="174.137931" y="29.310345" width="9.655172" height="9.655172" rx="2.413793" ry="2.413793" fill="#c41717" /><rect x="183.793103" y="29.310345" width="9.655172" height="9.655172" rx="2.413793" ry="2.413793" fill="#c41717" /><rect x="193.448276" y="29.310345" width="9.655172" height="9.655172" rx="2.413793" ry="2.413793" fill="#c41717" /><rect x="203.103448" y="29.310345" width="9.655172" height="9.655172" rx="2.413793" ry="2.413793" fill="#c41717" /><rect x="212.758621" y="29.310345" width="9.655172" height="9.655172" rx="2.413793" ry="2.413793" fill="#c41717" /><rect x="77.586207" y="38.965517" width="9.655172" height="9.655172" rx="2.413793" ry="2.413793" fill="#c41717" /><rect x="87.241379" y="38.965517" width="9.655172" height="9.655172" rx="2.413793" ry="2.413793" fill="#c41717" /><rect x="96.896552" y="38.965517" width="9.655172" height="9.655172" rx="2.413793" ry="2.413793" fill="#c41717" /><rect x="106.551724" y="38.965517" width="9.655172" height="9.655172" rx="2.413793" ry="2.413793" fill="#c41717" /><rect x="116.206897" y="38.965517" width="9.655172" height="9.655172" rx="2.413793" ry="2.413793" fill="#c41717" /><rect x="125.862069" y="38.965517" width="9.655172" height="9.655172" rx="2.413793" ry="2.413793" fill="#c41717" /><rect x="135.517241" y="38.965517" width="9.655172" height="9.655172" rx="2.413793" ry="2.413793" fill="#c41717" /><rect x="145.172414" y="38.965517" width="9.655172" height="9.655172" rx="2.413793" ry="2.413793" fill="#c41717" /><rect x="154.827586" y="38.965517" width="9.655172" height="9.655172" rx="2.413793" ry="2.413793" fill="#c41717" /><rect x="164.482759" y="38.965517" width="9.655172" height="9.655172" rx="2.413793" ry="2.413793" fill="#c41717" /><rect x="174.137931" y="38.965517" width="9.655172" height="9.655172" rx="2.413793" ry="2.413793" fill="#c41717" /><rect x="183.793103" y="38.965517" width="9.655172" height="9.655172" rx="2.413793" ry="2.413793" fill="#c41717" /><rect x="193.448276" y="38.965517" width="9.655172" height="9.655172" rx="2.413793" ry="2.413793" fill="#c41717" /><rect x="203.103448" y="38.965517" width="9.655172" height="9.655172" rx="2.413793" ry="2.413793" fill="#c41717" /><rect x="212.758621" y="38.965517" width="9.655172" height="9.655172" rx="2.413793" ry="2.413793" fill="#c41717" /><rect x="77.586207" y="48.620690" width="9.655172" height="9.655172" rx="2.413793" ry="2.413793" fill="#c41717" /><rect x="87.241379" y="48.620690" width="9.655172" height="9.655172" rx="2.413793" ry="2.413793" fill="#c41717" /><rect x="96.896552" y="48.620690" width="9.655172" height="9.655172" rx="2.413793" ry="2.413793" fill="#c41717" /><rect x="106.551724" y="48.620690" width="9.655172" height="9.655172" rx="2.413793" ry="2.413793" fill="#c41717" /><rect x="116.206897" y="48.620690" width="9.655172" height="9.655172" rx="2.413793" ry="2.413793" fill="#c41717" /><rect x="125.862069" y="48.620690" width="9.655172" height="9.655172" rx="2.413793" ry="2.413793" fill="#c41717" /><rect x="135.517241" y="48.620690" width="9.655172" height="9.655172" rx="2.413793" ry="2.413793" fill="#c41717" /><rect x="145.172414" y="48.620690" width="9.655172" height="9.655172" rx="2.413793" ry="2.413793" fill="#c41717" /><rect x="154.827586" y="48.620690" width="9.655172" height="9.655172" rx="2.413793" ry="2.413793" fill="#c41717" /><rect x="164.482759" y="48.620690" width="9.655172" height="9.655172" rx="2.413793" ry="2.413793" fill="#c41717" /><rect x="174.137931" y="48.620690" width="9.655172" height="9.655172" rx="2.413793" ry="2.413793" fill="#c41717" /><rect x="183.793103" y="48.620690" width="9.655172" height="9.655172" rx="2.413793" ry="2.413793" fill="#c41717" /><rect x="193.448276" y="48.620690" width="9.655172" height="9.655172" rx="2.413793" ry="2.413793" fill="#c41717" /><rect x="203.103448" y="48.620690" width="9.655172" height="9.655172" rx="2.413793" ry="2.413793" fill="#c41717" /><rect x="212.758621" y="48.620690" width="9.655172" height="9.655172" rx="2.413793" ry="2.413793" fill="#c41717" /><rect x="77.586207" y="58.275862" width="9.655172" height="9.655172" rx="2.413793" ry="2.413793" fill="#c41717" /><rect x="87.241379" y="58.275862" width="9.655172" height="9.655172" rx="2.413793" ry="2.413793" fill="#c41717" /><rect x="96.896552" y="58.275862" width="9.655172" height="9.655172" rx="2.413793" ry="2.413793" fill="#c41717" /><rect x="106.551724" y="58.275862" width="9.655172" height="9.655172" rx="2.413793" ry="2.413793" fill="#c41717" /><rect x="116.206897" y="58.275862" width="9.655172" height="9.655172" rx="2.413793" ry="2.413793" fill="#c41717" /><rect x="125.862069" y="58.275862" width="9.655172" height="9.655172" rx="2.413793" ry="2.413793" fill="#c41717" /><rect x="135.517241" y="58.275862" width="9.655172" height="9.655172" rx="2.413793" ry="2.413793" fill="#c41717" /><rect x="145.172414" y="58.275862" width="9.655172" height="9.655172" rx="2.413793" ry="2.413793" fill="#c41717" /><rect x="154.827586" y="58.275862" width="9.655172" height="9.655172" rx="2.413793" ry="2.413793" fill="#c41717" /><rect x="164.482759" y="58.275862" width="9.655172" height="9.655172" rx="2.413793" ry="2.413793" fill="#c41717" /><rect x="174.137931" y="58.275862" width="9.655172" height="9.655172" rx="2.413793" ry="2.413793" fill="#c41717" /><rect x="183.793103" y="58.275862" width="9.655172" height="9.655172" rx="2.413793" ry="2.413793" fill="#c41717" /><rect x="193.448276" y="58.275862" width="9.655172" height="9.655172" rx="2.413793" ry="2.413793" fill="#c41717" /><rect x="203.103448" y="58.275862" width="9.655172" height="9.655172" rx="2.413793" ry="2.413793" fill="#c41717" /><rect x="212.758621" y="58.275862" width="9.655172" height="9.655172" rx="2.413793" ry="2.413793" fill="#c41717" /><rect x="77.586207" y="67.931034" width="9.655172" height="9.655172" rx="2.413793" ry="2.413793" fill="#c41717" /><rect x="87.241379" y="67.931034" width="9.655172" height="9.655172" rx="2.413793" ry="2.413793" fill="#c41717" /><rect x="96.896552" y="67.931034" width="9.655172" height="9.655172" rx="2.413793" ry="2.413793" fill="#c41717" /><rect x="106.551724" y="67.931034" width="9.655172" height="9.655172" rx="2.413793" ry="2.413793" fill="#c41717" /><rect x="116.206897" y="67.931034" width="9.655172" height="9.655172" rx="2.413793" ry="2.413793" fill="#c41717" /><rect x="125.862069" y="67.931034" width="9.655172" height="9.655172" rx="2.413793" ry="2.413793" fill="#c41717" /><rect x="135.517241" y="67.931034" width="9.655172" height="9.655172" rx="2.413793" ry="2.413793" fill="#c41717" /><rect x="145.172414" y="67.931034" width="9.655172" height="9.655172" rx="2.413793" ry="2.413793" fill="#c41717" /><rect x="154.827586" y="67.931034" width="9.655172" height="9.655172" rx="2.413793" ry="2.413793" fill="#c41717" /><rect x="164.482759" y="67.931034" width="9.655172" height="9.655172" rx="2.413793" ry="2.413793" fill="#c41717" /><rect x="174.137931" y="67.931034" width="9.655172" height="9.655172" rx="2.413793" ry="2.413793" fill="#c41717" /><rect x="183.793103" y="67.931034" width="9.655172" height="9.655172" rx="2.413793" ry="2.413793" fill="#c41717" /><rect x="193.448276" y="67.931034" width="9.655172" height="9.655172" rx="2.413793" ry="2.413793" fill="#c41717" /><rect x="203.103448" y="67.931034" width="9.655172" height="9.655172" rx="2.413793" ry="2.413793" fill="#c41717" /><rect x="212.758621" y="67.931034" width="9.655172" height="9.655172" rx="2.413793" ry="2.413793" fill="#c41717" /><rect x="10.000000" y="77.586207" width="9.655172" height="9.655172" rx="2.413793" ry="2.413793" fill="#c41717" /><rect x="19.655172" y="77.586207" width="9.655172" height="9.655172" rx="2.413793" ry="2.413793" fill="#c41717" /><rect x="29.310345" y="77.586207" width="9.655172" height="9.655172" rx="2.413793" ry="2.413793" fill="#c41717" /><rect x="38.965517" y="77.586207" width="9.655172" height="9.655172" rx="2.413793" ry="2.413793" fill="#c41717" /><rect x="48.620690" y="77.586207" width="9.655172" height="9.655172" rx="2.413793" ry="2.413793" fill="#c41717" /><rect x="58.275862" y="77.586207" width="9.655172" height="9.655172" rx="2.413793" ry="2.413793" fill="#c41717" /><rect x="67.931034" y="77.586207" width="9.655172" height="9.655172" rx="2.413793" ry="2.413793" fill="#c41717" /><rect x="77.586207" y="77.586207" width="9.655172" height="9.655172" rx="2.413793" ry="2.413793" fill="#c41717" /><rect x="87.241379" y="77.586207" width="9.655172" height="9.655172" rx="2.413793" ry="2.413793" fill="#c41717" /><rect x="96.896552" y="77.586207" width="9.655172" height="9.655172" rx="2.413793" ry="2.413793" fill="#c41717" /><rect x="106.551724" y="77.586207" width="9.655172" height="9.655172" rx="2.413793" ry="2.413793" fill="#c41717" /><rect x="116.206897" y="77.586207" width="9.655172" height="9.655172" rx="2.413793" ry="2.413793" fill="#c41717" /><rect x="125.862069" y="77.586207" width="9.655172" height="9.655172" rx="2.413793" ry="2.413793" fill="#c41717" /><rect x="135.517241" y="77.586207" width="9.655172" height="9.655172" rx="2.413793" ry="2.413793" fill="#c41717" /><rect x="145.172414" y="77.586207" width="9.655172" height="9.655172" rx="2.413793" ry="2.413793" fill="#c41717" /><rect x="154.827586" y="77.586207" width="9.655172" height="9.655172" rx="2.413793" ry="2.413793" fill="#c41717" /><rect x="164.482759" y="77.586207" width="9.655172" height="9.655172" rx="2.413793" ry="2.413793" fill="#c41717" /><rect x="174.137931" y="77.586207" width="9.655172" height="9.655172" rx="2.413793" ry="2.413793" fill="#c41717" /><rect x="183.793103" y="77.586207" width="9.655172" height="9.655172" rx="2.413793" ry="2.413793" fill="#c41717" /><rect x="193.448276" y="77.586207" width="9.655172" height="9.655172" rx="2.413793" ry="2.413793" fill="#c41717" /><rect x="203.103448" y="77.586207" width="9.655172" height="9.655172" rx="2.413793" ry="2.413793" fill="#c41717" /><rect x="212.758621" y="77.586207" width="9.655172" height="9.655172" rx="2.413793" ry="2.413793" fill="#c41717" /><rect x="222.413793" y="77.586207" width="9.655172" height="9.655172" rx="2.413793" ry="2.413793" fill="#c41717" /><rect x="232.068966" y="77.586207" width="9.655172" height="9.655172" rx="2.413793" ry="2.413793" fill="#c41717" /><rect x="241.724138" y="77.586207" width="9.655172" height="9.655172" rx="2.413793" ry="2.413793" fill="#c41717" /><rect x="251.379310" y="77.586207" width="9.655172" height="9.655172" rx="2.413793" ry="2.413793" fill="#c41717" /><rect x="261.034483" y="77.586207" width="9.655172" height="9.655172" rx="2.413793" ry="2.413793" fill="#c41717" /><rect x="270.689655" y="77.586207" width="9.655172" height="9.655172" rx="2.413793" ry="2.413793" fill="#c41717" /><rect x="280.344828" y="77.586207" width="9.655172" height="9.655172" rx="2.413793" ry="2.413793" fill="#c41717" /><rect x="10.000000" y="87.241379" width="9.655172" height="9.655172" rx="2.413793" ry="2.413793" fill="#c41717" /><rect x="19.655172" y="87.241379" width="9.655172" height="9.655172" rx="2.413793" ry="2.413793" fill="#c41717" /><rect x="29.310345" y="87.241379" width="9.655172" height="9.655172" rx="2.413793" ry="2.413793" fill="#c41717" /><rect x="38.965517" y="87.241379" width="9.655172" height="9.655172" rx="2.413793" ry="2.413793" fill="#c41717" /><rect x="48.620690" y="87.241379" width="9.655172" height="9.655172" rx="2.413793" ry="2.413793" fill="#c41717" /><rect x="58.275862" y="87.241379" width="9.655172" height="9.655172" rx="2.413793" ry="2.413793" fill="#c41717" /><rect x="67.931034" y="87.241379" width="9.655172" height="9.655172" rx="2.413793" ry="2.413793" fill="#c41717" /><rect x="77.586207" y="87.241379" width="9.655172" height="9.655172" rx="2.413793" ry="2.413793" fill="#c41717" /><rect x="87.241379" y="87.241379" width="9.655172" height="9.655172" rx="2.413793" ry="2.413793" fill="#c41717" /><rect x="96.896552" y="87.241379" width="9.655172" height="9.655172" rx="2.413793" ry="2.413793" fill="#c41717" /><rect x="106.551724" y="87.241379" width="9.655172" height="9.655172" rx="2.413793" ry="2.413793" fill="#c41717" /><rect x="116.206897" y="87.241379" width="9.655172" height="9.655172" rx="2.413793" ry="2.413793" fill="#c41717" /><rect x="125.862069" y="87.241379" width="9.655172" height="9.655172" rx="2.413793" ry="2.413793" fill="#c41717" /><rect x="135.517241" y="87.241379" width="9.655172" height="9.655172" rx="2.413793" ry="2.413793" fill="#c41717" /><rect x="145.172414" y="87.241379" width="9.655172" height="9.655172" rx="2.413793" ry="2.413793" fill="#c41717" /><rect x="154.827586" y="87.241379" width="9.655172" height="9.655172" rx="2.413793" ry="2.413793" fill="#c41717" /><rect x="164.482759" y="87.241379" width="9.655172" height="9.655172" rx="2.413793" ry="2.413793" fill="#c41717" /><rect x="174.137931" y="87.241379" width="9.655172" height="9.655172" rx="2.413793" ry="2.413793" fill="#c41717" /><rect x="183.793103" y="87.241379" width="9.655172" height="9.655172" rx="2.413793" ry="2.413793" fill="#c41717" /><rect x="193.448276" y="87.241379" width="9.655172" height="9.655172" rx="2.413793" ry="2.413793" fill="#c41717" /><rect x="203.103448" y="87.241379" width="9.655172" height="9.655172" rx="2.413793" ry="2.413793" fill="#c41717" /><rect x="212.758621" y="87.241379" width="9.655172" height="9.655172" rx="2.413793" ry="2.413793" fill="#c41717" /><rect x="222.413793" y="87.241379" width="9.655172" height="9.655172" rx="2.413793" ry="2.413793" fill="#c41717" /><rect x="232.068966" y="87.241379" width="9.655172" height="9.655172" rx="2.413793" ry="2.413793" fill="#c41717" /><rect x="241.724138" y="87.241379" width="9.655172" height="9.655172" rx="2.413793" ry="2.413793" fill="#c41717" /><rect x="251.379310" y="87.241379" width="9.655172" height="9.655172" rx="2.413793" ry="2.413793" fill="#c41717" /><rect x="261.034483" y="87.241379" width="9.655172" height="9.655172" rx="2.413793" ry="2.413793" fill="#c41717" /><rect x="270.689655" y="87.241379" width="9.655172" height="9.655172" rx="2.413793" ry="2.413793" fill="#c41717" /><rect x="280.344828" y="87.241379" width="9.655172" height="9.655172" rx="2.413793" ry="2.413793" fill="#c41717" /><rect x="10.000000" y="96.896552" width="9.655172" height="9.655172" rx="2.413793" ry="2.413793" fill="#c41717" /><rect x="19.655172" y="96.896552" width="9.655172" height="9.655172" rx="2.413793" ry="2.413793" fill="#c41717" /><rect x="29.310345" y="96.896552" width="9.655172" height="9.655172" rx="2.413793" ry="2.413793" fill="#c41717" /><rect x="38.965517" y="96.896552" width="9.655172" height="9.655172" rx="2.413793" ry="2.413793" fill="#c41717" /><rect x="48.620690" y="96.896552" width="9.655172" height="9.655172" rx="2.413793" ry="2.413793" fill="#c41717" /><rect x="58.275862" y="96.896552" width="9.655172" height="9.655172" rx="2.413793" ry="2.413793" fill="#c41717" /><rect x="67.931034" y="96.896552" width="9.655172" height="9.655172" rx="2.413793" ry="2.413793" fill="#c41717" /><rect x="77.586207" y="96.896552" width="9.655172" height="9.655172" rx="2.413793" ry="2.413793" fill="#c41717" /><rect x="87.241379" y="96.896552" width="9.655172" height="9.655172" rx="2.413793" ry="2.413793" fill="#c41717" /><rect x="96.896552" y="96.896552" width="9.655172" height="9.655172" rx="2.413793" ry="2.413793" fill="#c41717" /><rect x="106.551724" y="96.896552" width="9.655172" height="9.655172" rx="2.413793" ry="2.413793" fill="#c41717" /><rect x="116.206897" y="96.896552" width="9.655172" height="9.655172" rx="2.413793" ry="2.413793" fill="#c41717" /><rect x="125.862069" y="96.896552" width="9.655172" height="9.655172" rx="2.413793" ry="2.413793" fill="#c41717" /><rect x="135.517241" y="96.896552" width="9.655172" height="9.655172" rx="2.413793" ry="2.413793" fill="#c41717" /><rect x="145.172414" y="96.896552" width="9.655172" height="9.655172" rx="2.413793" ry="2.413793" fill="#c41717" /><rect x="154.827586" y="96.896552" width="9.655172" height="9.655172" rx="2.413793" ry="2.413793" fill="#c41717" /><rect x="164.482759" y="96.896552" width="9.655172" height="9.655172" rx="2.413793" ry="2.413793" fill="#c41717" /><rect x="174.137931" y="96.896552" width="9.655172" height="9.655172" rx="2.413793" ry="2.413793" fill="#c41717" /><rect x="183.793103" y="96.896552" width="9.655172" height="9.655172" rx="2.413793" ry="2.413793" fill="#c41717" /><rect x="193.448276" y="96.896552" width="9.655172" height="9.655172" rx="2.413793" ry="2.413793" fill="#c41717" /><rect x="203.103448" y="96.896552" width="9.655172" height="9.655172" rx="2.413793" ry="2.413793" fill="#c41717" /><rect x="212.758621" y="96.896552" width="9.655172" height="9.655172" rx="2.413793" ry="2.413793" fill="#c41717" /><rect x="222.413793" y="96.896552" width="9.655172" height="9.655172" rx="2.413793" ry="2.413793" fill="#c41717" /><rect x="232.068966" y="96.896552" width="9.655172" height="9.655172" rx="2.413793" ry="2.413793" fill="#c41717" /><rect x="241.724138" y="96.896552" width="9.655172" height="9.655172" rx="2.413793" ry="2.413793" fill="#c41717" /><rect x="251.379310" y="96.896552" width="9.655172" height="9.655172" rx="2.413793" ry="2.413793" fill="#c41717" /><rect x="261.034483" y="96.896552" width="9.655172" height="9.655172" rx="2.413793" ry="2.413793" fill="#c41717" /><rect x="270.689655" y="96.896552" width="9.655172" height="9.655172" rx="2.413793" ry="2.413793" fill="#c41717" /><rect x="280.344828" y="96.896552" width="9.655172" height="9.655172" rx="2.413793" ry="2.413793" fill="#c41717" /><rect x="10.000000" y="106.551724" width="9.655172" height="9.655172" rx="2.413793" ry="2.413793" fill="#c41717" /><rect x="19.655172" y="106.551724" width="9.655172" height="9.655172" rx="2.413793" ry="2.413793" fill="#c41717" /><rect x="29.310345" y="106.551724" width="9.655172" height="9.655172" rx="2.413793" ry="2.413793" fill="#c41717" /><rect x="38.965517" y="106.551724" width="9.655172" height="9.655172" rx="2.413793" ry="2.413793" fill="#c41717" /><rect x="48.620690" y="106.551724" width="9.655172" height="9.655172" rx="2.413793" ry="2.413793" fill="#c41717" /><rect x="58.275862" y="106.551724" width="9.655172" height="9.655172" rx="2.413793" ry="2.413793" fill="#c41717" /><rect x="67.931034" y="106.551724" width="9.655172" height="9.655172" rx="2.413793" ry="2.413793" fill="#c41717" /><rect x="77.586207" y="106.551724" width="9.655172" height="9.655172" rx="2.413793" ry="2.413793" fill="#c41717" /><rect x="87.241379" y="106.551724" width="9.655172" height="9.655172" rx="2.413793" ry="2.413793" fill="#c41717" /><rect x="96.896552" y="106.551724" width="9.655172" height="9.655172" rx="2.413793" ry="2.413793" fill="#c41717" /><rect x="106.551724" y="106.551724" width="9.655172" height="9.655172" rx="2.413793" ry="2.413793" fill="#c41717" /><rect x="116.206897" y="106.551724" width="9.655172" height="9.655172" rx="2.413793" ry="2.413793" fill="#c41717" /><rect x="125.862069" y="106.551724" width="9.655172" height="9.655172" rx="2.413793" ry="2.413793" fill="#c41717" /><rect x="135.517241" y="106.551724" width="9.655172" height="9.655172" rx="2.413793" ry="2.413793" fill="#c41717" /><rect x="145.172414" y="106.551724" width="9.655172" height="9.655172" rx="2.413793" ry="2.413793" fill="#c41717" /><rect x="154.827586" y="106.551724" width="9.655172" height="9.655172" rx="2.413793" ry="2.413793" fill="#c41717" /><rect x="164.482759" y="106.551724" width="9.655172" height="9.655172" rx="2.413793" ry="2.413793" fill="#c41717" /><rect x="174.137931" y="106.551724" width="9.655172" height="9.655172" rx="2.413793" ry="2.413793" fill="#c41717" /><rect x="183.793103" y="106.551724" width="9.655172" height="9.655172" rx="2.413793" ry="2.413793" fill="#c41717" /><rect x="193.448276" y="106.551724" width="9.655172" height="9.655172" rx="2.413793" ry="2.413793" fill="#c41717" /><rect x="203.103448" y="106.551724" width="9.655172" height="9.655172" rx="2.413793" ry="2.413793" fill="#c41717" /><rect x="212.758621" y="106.551724" width="9.655172" height="9.655172" rx="2.413793" ry="2.413793" fill="#c41717" /><rect x="222.413793" y="106.551724" width="9.655172" height="9.655172" rx="2.413793" ry="2.413793" fill="#c41717" /><rect x="232.068966" y="106.551724" width="9.655172" height="9.655172" rx="2.413793" ry="2.413793" fill="#c41717" /><rect x="241.724138" y="106.551724" width="9.655172" height="9.655172" rx="2.413793" ry="2.413793" fill="#c41717" /><rect x="251.379310" y="106.551724" width="9.655172" height="9.655172" rx="2.413793" ry="2.413793" fill="#c41717" /><rect x="261.034483" y="106.551724" width="9.655172" height="9.655172" rx="2.413793" ry="2.413793" fill="#c41717" /><rect x="270.689655" y="106.551724" width="9.655172" height="9.655172" rx="2.413793" ry="2.413793" fill="#c41717" /><rect x="280.344828" y="106.551724" width="9.655172" height="9.655172" rx="2.413793" ry="2.413793" fill="#c41717" /><rect x="10.000000" y="116.206897" width="9.655172" height="9.655172" rx="2.413793" ry="2.413793" fill="#c41717" /><rect x="19.655172" y="116.206897" width="9.655172" height="9.655172" rx="2.413793" ry="2.413793" fill="#c41717" /><rect x="29.310345" y="116.206897" width="9.655172" height="9.655172" rx="2.413793" ry="2.413793" fill="#c41717" /><rect x="38.965517" y="116.206897" width="9.655172" height="9.655172" rx="2.413793" ry="2.413793" fill="#c41717" /><rect x="48.620690" y="116.206897" width="9.655172" height="9.655172" rx="2.413793" ry="2.413793" fill="#c41717" /><rect x="58.275862" y="116.206897" width="9.655172" height="9.655172" rx="2.413793" ry="2.413793" fill="#c41717" /><rect x="67.931034" y="116.206897" width="9.655172" height="9.655172" rx="2.413793" ry="2.413793" fill="#c41717" /><rect x="77.586207" y="116.206897" width="9.655172" height="9.655172" rx="2.413793" ry="2.413793" fill="#c41717" /><rect x="87.241379" y="116.206897" width="9.655172" height="9.655172" rx="2.413793" ry="2.413793" fill="#c41717" /><rect x="96.896552" y="116.206897" width="9.655172" height="9.655172" rx="2.413793" ry="2.413793" fill="#c41717" /><rect x="106.551724" y="116.206897" width="9.655172" height="9.655172" rx="2.413793" ry="2.413793" fill="#c41717" /><rect x="116.206897" y="116.206897" width="9.655172" height="9.655172" rx="2.413793" ry="2.413793" fill="#c41717" /><rect x="125.862069" y="116.206897" width="9.655172" height="9.655172" rx="2.413793" ry="2.413793" fill="#c41717" /><rect x="135.517241" y="116.206897" width="9.655172" height="9.655172" rx="2.413793" ry="2.413793" fill="#c41717" /><rect x="145.172414" y="116.206897" width="9.655172" height="9.655172" rx="2.413793" ry="2.413793" fill="#c41717" /><rect x="154.827586" y="116.206897" width="9.655172" height="9.655172" rx="2.413793" ry="2.413793" fill="#c41717" /><rect x="164.482759" y="116.206897" width="9.655172" height="9.655172" rx="2.413793" ry="2.413793" fill="#c41717" /><rect x="174.137931" y="116.206897" width="9.655172" height="9.655172" rx="2.413793" ry="2.413793" fill="#c41717" /><rect x="183.793103" y="116.206897" width="9.655172" height="9.655172" rx="2.413793" ry="2.413793" fill="#c41717" /><rect x="193.448276" y="116.206897" width="9.655172" height="9.655172" rx="2.413793" ry="2.413793" fill="#c41717" /><rect x="203.103448" y="116.206897" width="9.655172" height="9.655172" rx="2.413793" ry="2.413793" fill="#c41717" /><rect x="212.758621" y="116.206897" width="9.655172" height="9.655172" rx="2.413793" ry="2.413793" fill="#c41717" /><rect x="222.413793" y="116.206897" width="9.655172" height="9.655172" rx="2.413793" ry="2.413793" fill="#c41717" /><rect x="232.068966" y="116.206897" width="9.655172" height="9.655172" rx="2.413793" ry="2.413793" fill="#c41717" /><rect x="241.724138" y="116.206897" width="9.655172" height="9.655172" rx="2.413793" ry="2.413793" fill="#c41717" /><rect x="251.379310" y="116.206897" width="9.655172" height="9.655172" rx="2.413793" ry="2.413793" fill="#c41717" /><rect x="261.034483" y="116.206897" width="9.655172" height="9.655172" rx="2.413793" ry="2.413793" fill="#c41717" /><rect x="270.689655" y="116.206897" width="9.655172" height="9.655172" rx="2.413793" ry="2.413793" fill="#c41717" /><rect x="280.344828" y="116.206897" width="9.655172" height="9.655172" rx="2.413793" ry="2.413793" fill="#c41717" /><rect x="10.000000" y="125.862069" width="9.655172" height="9.655172" rx="2.413793" ry="2.413793" fill="#c41717" /><rect x="19.655172" y="125.862069" width="9.655172" height="9.655172" rx="2.413793" ry="2.413793" fill="#c41717" /><rect x="29.310345" y="125.862069" width="9.655172" height="9.655172" rx="2.413793" ry="2.413793" fill="#c41717" /><rect x="38.965517" y="125.862069" width="9.655172" height="9.655172" rx="2.413793" ry="2.413793" fill="#c41717" /><rect x="48.620690" y="125.862069" width="9.655172" height="9.655172" rx="2.413793" ry="2.413793" fill="#c41717" /><rect x="58.275862" y="125.862069" width="9.655172" height="9.655172" rx="2.413793" ry="2.413793" fill="#c41717" /><rect x="67.931034" y="125.862069" width="9.655172" height="9.655172" rx="2.413793" ry="2.413793" fill="#c41717" /><rect x="77.586207" y="125.862069" width="9.655172" height="9.655172" rx="2.413793" ry="2.413793" fill="#c41717" /><rect x="87.241379" y="125.862069" width="9.655172" height="9.655172" rx="2.413793" ry="2.413793" fill="#c41717" /><rect x="96.896552" y="125.862069" width="9.655172" height="9.655172" rx="2.413793" ry="2.413793" fill="#c41717" /><rect x="106.551724" y="125.862069" width="9.655172" height="9.655172" rx="2.413793" ry="2.413793" fill="#c41717" /><rect x="116.206897" y="125.862069" width="9.655172" height="9.655172" rx="2.413793" ry="2.413793" fill="#c41717" /><rect x="125.862069" y="125.862069" width="9.655172" height="9.655172" rx="2.413793" ry="2.413793" fill="#c41717" /><rect x="135.517241" y="125.862069" width="9.655172" height="9.655172" rx="2.413793" ry="2.413793" fill="#c41717" /><rect x="145.172414" y="125.862069" width="9.655172" height="9.655172" rx="2.413793" ry="2.413793" fill="#c41717" /><rect x="154.827586" y="125.862069" width="9.655172" height="9.655172" rx="2.413793" ry="2.413793" fill="#c41717" /><rect x="164.482759" y="125.862069" width="9.655172" height="9.655172" rx="2.413793" ry="2.413793" fill="#c41717" /><rect x="174.137931" y="125.862069" width="9.655172" height="9.655172" rx="2.413793" ry="2.413793" fill="#c41717" /><rect x="183.793103" y="125.862069" width="9.655172" height="9.655172" rx="2.413793" ry="2.413793" fill="#c41717" /><rect x="193.448276" y="125.862069" width="9.655172" height="9.655172" rx="2.413793" ry="2.413793" fill="#c41717" /><rect x="203.103448" y="125.862069" width="9.655172" height="9.655172" rx="2.413793" ry="2.413793" fill="#c41717" /><rect x="212.758621" y="125.862069" width="9.655172" height="9.655172" rx="2.413793" ry="2.413793" fill="#c41717" /><rect x="222.413793" y="125.862069" width="9.655172" height="9.655172" rx="2.413793" ry="2.413793" fill="#c41717" /><rect x="232.068966" y="125.862069" width="9.655172" height="9.655172" rx="2.413793" ry="2.413793" fill="#c41717" /><rect x="241.724138" y="125.862069" width="9.655172" height="9.655172" rx="2.413793" ry="2.413793" fill="#c41717" /><rect x="251.379310" y="125.862069" width="9.655172" height="9.655172" rx="2.413793" ry="2.413793" fill="#c41717" /><rect x="261.034483" y="125.862069" width="9.655172" height="9.655172" rx="2.413793" ry="2.413793" fill="#c41717" /><rect x="270.689655" y="125.862069" width="9.655172" height="9.655172" rx="2.413793" ry="2.413793" fill="#c41717" /><rect x="280.344828" y="125.862069" width="9.655172" height="9.655172" rx="2.413793" ry="2.413793" fill="#c41717" /><rect x="10.000000" y="135.517241" width="9.655172" height="9.655172" rx="2.413793" ry="2.413793" fill="#c41717" /><rect x="19.655172" y="135.517241" width="9.655172" height="9.655172" rx="2.413793" ry="2.413793" fill="#c41717" /><rect x="29.310345" y="135.517241" width="9.655172" height="9.655172" rx="2.413793" ry="2.413793" fill="#c41717" /><rect x="38.965517" y="135.517241" width="9.655172" height="9.655172" rx="2.413793" ry="2.413793" fill="#c41717" /><rect x="48.620690" y="135.517241" width="9.655172" height="9.655172" rx="2.413793" ry="2.413793" fill="#c41717" /><rect x="58.275862" y="135.517241" width="9.655172" height="9.655172" rx="2.413793" ry="2.413793" fill="#c41717" /><rect x="67.931034" y="135.517241" width="9.655172" height="9.655172" rx="2.413793" ry="2.413793" fill="#c41717" /><rect x="77.586207" y="135.517241" width="9.655172" height="9.655172" rx="2.413793" ry="2.413793" fill="#c41717" /><rect x="87.241379" y="135.517241" width="9.655172" height="9.655172" rx="2.413793" ry="2.413793" fill="#c41717" /><rect x="96.896552" y="135.517241" width="9.655172" height="9.655172" rx="2.413793" ry="2.413793" fill="#c41717" /><rect x="106.551724" y="135.517241" width="9.655172" height="9.655172" rx="2.413793" ry="2.413793" fill="#c41717" /><rect x="116.206897" y="135.517241" width="9.655172" height="9.655172" rx="2.413793" ry="2.413793" fill="#c41717" /><rect x="125.862069" y="135.517241" width="9.655172" height="9.655172" rx="2.413793" ry="2.413793" fill="#c41717" /><rect x="135.517241" y="135.517241" width="9.655172" height="9.655172" rx="2.413793" ry="2.413793" fill="#c41717" /><rect x="145.172414" y="135.517241" width="9.655172" height="9.655172" rx="2.413793" ry="2.413793" fill="#c41717" /><rect x="154.827586" y="135.517241" width="9.655172" height="9.655172" rx="2.413793" ry="2.413793" fill="#c41717" /><rect x="164.482759" y="135.517241" width="9.655172" height="9.655172" rx="2.413793" ry="2.413793" fill="#c41717" /><rect x="174.137931" y="135.517241" width="9.655172" height="9.655172" rx="2.413793" ry="2.413793" fill="#c41717" /><rect x="183.793103" y="135.517241" width="9.655172" height="9.655172" rx="2.413793" ry="2.413793" fill="#c41717" /><rect x="193.448276" y="135.517241" width="9.655172" height="9.655172" rx="2.413793" ry="2.413793" fill="#c41717" /><rect x="203.103448" y="135.517241" width="9.655172" height="9.655172" rx="2.413793" ry="2.413793" fill="#c41717" /><rect x="212.758621" y="135.517241" width="9.655172" height="9.655172" rx="2.413793" ry="2.413793" fill="#c41717" /><rect x="222.413793" y="135.517241" width="9.655172" height="9.655172" rx="2.413793" ry="2.413793" fill="#c41717" /><rect x="232.068966" y="135.517241" width="9.655172" height="9.655172" rx="2.413793" ry="2.413793" fill="#c41717" /><rect x="241.724138" y="135.517241" width="9.655172" height="9.655172" rx="2.413793" ry="2.413793" fill="#c41717" /><rect x="251.379310" y="135.517241" width="9.655172" height="9.655172" rx="2.413793" ry="2.413793" fill="#c41717" /><rect x="261.034483" y="135.517241" width="9.655172" height="9.655172" rx="2.413793" ry="2.413793" fill="#c41717" /><rect x="270.689655" y="135.517241" width="9.655172" height="9.655172" rx="2.413793" ry="2.413793" fill="#c41717" /><rect x="280.344828" y="135.517241" width="9.655172" height="9.655172" rx="2.413793" ry="2.413793" fill="#c41717" /><rect x="10.000000" y="145.172414" width="9.655172" height="9.655172" rx="2.413793" ry="2.413793" fill="#c41717" /><rect x="19.655172" y="145.172414" width="9.655172" height="9.655172" rx="2.413793" ry="2.413793" fill="#c41717" /><rect x="29.310345" y="145.172414" width="9.655172" height="9.655172" rx="2.413793" ry="2.413793" fill="#c41717" /><rect x="38.965517" y="145.172414" width="9.655172" height="9.655172" rx="2.413793" ry="2.413793" fill="#c41717" /><rect x="48.620690" y="145.172414" width="9.655172" height="9.655172" rx="2.413793" ry="2.413793" fill="#c41717" /><rect x="58.275862" y="145.172414" width="9.655172" height="9.655172" rx="2.413793" ry="2.413793" fill="#c41717" /><rect x="67.931034" y="145.172414" width="9.655172" height="9.655172" rx="2.413793" ry="2.413793" fill="#c41717" /><rect x="77.586207" y="145.172414" width="9.655172" height="9.655172" rx="2.413793" ry="2.413793" fill="#c41717" /><rect x="87.241379" y="145.172414" width="9.655172" height="9.655172" rx="2.413793" ry="2.413793" fill="#c41717" /><rect x="96.896552" y="145.172414" width="9.655172" height="9.655172" rx="2.413793" ry="2.413793" fill="#c41717" /><rect x="106.551724" y="145.172414" width="9.655172" height="9.655172" rx="2.413793" ry="2.413793" fill="#c41717" /><rect x="116.206897" y="145.172414" width="9.655172" height="9.655172" rx="2.413793" ry="2.413793" fill="#c41717" /><rect x="125.862069" y="145.172414" width="9.655172" height="9.655172" rx="2.413793" ry="2.413793" fill="#c41717" /><rect x="135.517241" y="145.172414" width="9.655172" height="9.655172" rx="2.413793" ry="2.413793" fill="#c41717" /><rect x="145.172414" y="145.172414" width="9.655172" height="9.655172" rx="2.413793" ry="2.413793" fill="#c41717" /><rect x="154.827586" y="145.172414" width="9.655172" height="9.655172" rx="2.413793" ry="2.413793" fill="#c41717" /><rect x="164.482759" y="145.172414" width="9.655172" height="9.655172" rx="2.413793" ry="2.413793" fill="#c41717" /><rect x="174.137931" y="145.172414" width="9.655172" height="9.655172" rx="2.413793" ry="2.413793" fill="#c41717" /><rect x="183.793103" y="145.172414" width="9.655172" height="9.655172" rx="2.413793" ry="2.413793" fill="#c41717" /><rect x="193.448276" y="145.172414" width="9.655172" height="9.655172" rx="2.413793" ry="2.413793" fill="#c41717" /><rect x="203.103448" y="145.172414" width="9.655172" height="9.655172" rx="2.413793" ry="2.413793" fill="#c41717" /><rect x="212.758621" y="145.172414" width="9.655172" height="9.655172" rx="2.413793" ry="2.413793" fill="#c41717" /><rect x="222.413793" y="145.172414" width="9.655172" height="9.655172" rx="2.413793" ry="2.413793" fill="#c41717" /><rect x="232.068966" y="145.172414" width="9.655172" height="9.655172" rx="2.413793" ry="2.413793" fill="#c41717" /><rect x="241.724138" y="145.172414" width="9.655172" height="9.655172" rx="2.413793" ry="2.413793" fill="#c41717" /><rect x="251.379310" y="145.172414" width="9.655172" height="9.655172" rx="2.413793" ry="2.413793" fill="#c41717" /><rect x="261.034483" y="145.172414" width="9.655172" height="9.655172" rx="2.413793" ry="2.413793" fill="#c41717" /><rect x="270.689655" y="145.172414" width="9.655172" height="9.655172" rx="2.413793" ry="2.413793" fill="#c41717" /><rect x="280.344828" y="145.172414" width="9.655172" height="9.655172" rx="2.413793" ry="2.413793" fill="#c41717" /><rect x="10.000000" y="154.827586" width="9.655172" height="9.655172" rx="2.413793" ry="2.413793" fill="#c41717" /><rect x="19.655172" y="154.827586" width="9.655172" height="9.655172" rx="2.413793" ry="2.413793" fill="#c41717" /><rect x="29.310345" y="154.827586" width="9.655172" height="9.655172" rx="2.413793" ry="2.413793" fill="#c41717" /><rect x="38.965517" y="154.827586" width="9.655172" height="9.655172" rx="2.413793" ry="2.413793" fill="#c41717" /><rect x="48.620690" y="154.827586" width="9.655172" height="9.655172" rx="2.413793" ry="2.413793" fill="#c41717" /><rect x="58.275862" y="154.827586" width="9.655172" height="9.655172" rx="2.413793" ry="2.413793" fill="#c41717" /><rect x="67.931034" y="154.827586" width="9.655172" height="9.655172" rx="2.413793" ry="2.413793" fill="#c41717" /><rect x="77.586207" y="154.827586" width="9.655172" height="9.655172" rx="2.413793" ry="2.413793" fill="#c41717" /><rect x="87.241379" y="154.827586" width="9.655172" height="9.655172" rx="2.413793" ry="2.413793" fill="#c41717" /><rect x="96.896552" y="154.827586" width="9.655172" height="9.655172" rx="2.413793" ry="2.413793" fill="#c41717" /><rect x="106.551724" y="154.827586" width="9.655172" height="9.655172" rx="2.413793" ry="2.413793" fill="#c41717" /><rect x="116.206897" y="154.827586" width="9.655172" height="9.655172" rx="2.413793" ry="2.413793" fill="#c41717" /><rect x="125.862069" y="154.827586" width="9.655172" height="9.655172" rx="2.413793" ry="2.413793" fill="#c41717" /><rect x="135.517241" y="154.827586" width="9.655172" height="9.655172" rx="2.413793" ry="2.413793" fill="#c41717" /><rect x="145.172414" y="154.827586" width="9.655172" height="9.655172" rx="2.413793" ry="2.413793" fill="#c41717" /><rect x="154.827586" y="154.827586" width="9.655172" height="9.655172" rx="2.413793" ry="2.413793" fill="#c41717" /><rect x="164.482759" y="154.827586" width="9.655172" height="9.655172" rx="2.413793" ry="2.413793" fill="#c41717" /><rect x="174.137931" y="154.827586" width="9.655172" height="9.655172" rx="2.413793" ry="2.413793" fill="#c41717" /><rect x="183.793103" y="154.827586" width="9.655172" height="9.655172" rx="2.413793" ry="2.413793" fill="#c41717" /><rect x="193.448276" y="154.827586" width="9.655172" height="9.655172" rx="2.413793" ry="2.413793" fill="#c41717" /><rect x="203.103448" y="154.827586" width="9.655172" height="9.655172" rx="2.413793" ry="2.413793" fill="#c41717" /><rect x="212.758621" y="154.827586" width="9.655172" height="9.655172" rx="2.413793" ry="2.413793" fill="#c41717" /><rect x="222.413793" y="154.827586" width="9.655172" height="9.655172" rx="2.413793" ry="2.413793" fill="#c41717" /><rect x="232.068966" y="154.827586" width="9.655172" height="9.655172" rx="2.413793" ry="2.413793" fill="#c41717" /><rect x="241.724138" y="154.827586" width="9.655172" height="9.655172" rx="2.413793" ry="2.413793" fill="#c41717" /><rect x="251.379310" y="154.827586" width="9.655172" height="9.655172" rx="2.413793" ry="2.413793" fill="#c41717" /><rect x="261.034483" y="154.827586" width="9.655172" height="9.655172" rx="2.413793" ry="2.413793" fill="#c41717" /><rect x="270.689655" y="154.827586" width="9.655172" height="9.655172" rx="2.413793" ry="2.413793" fill="#c41717" /><rect x="280.344828" y="154.827586" width="9.655172" height="9.655172" rx="2.413793" ry="2.413793" fill="#c41717" /><rect x="10.000000" y="164.482759" width="9.655172" height="9.655172" rx="2.413793" ry="2.413793" fill="#c41717" /><rect x="19.655172" y="164.482759" width="9.655172" height="9.655172" rx="2.413793" ry="2.413793" fill="#c41717" /><rect x="29.310345" y="164.482759" width="9.655172" height="9.655172" rx="2.413793" ry="2.413793" fill="#c41717" /><rect x="38.965517" y="164.482759" width="9.655172" height="9.655172" rx="2.413793" ry="2.413793" fill="#c41717" /><rect x="48.620690" y="164.482759" width="9.655172" height="9.655172" rx="2.413793" ry="2.413793" fill="#c41717" /><rect x="58.275862" y="164.482759" width="9.655172" height="9.655172" rx="2.413793" ry="2.413793" fill="#c41717" /><rect x="67.931034" y="164.482759" width="9.655172" height="9.655172" rx="2.413793" ry="2.413793" fill="#c41717" /><rect x="77.586207" y="164.482759" width="9.655172" height="9.655172" rx="2.413793" ry="2.413793" fill="#c41717" /><rect x="87.241379" y="164.482759" width="9.655172" height="9.655172" rx="2.413793" ry="2.413793" fill="#c41717" /><rect x="96.896552" y="164.482759" width="9.655172" height="9.655172" rx="2.413793" ry="2.413793" fill="#c41717" /><rect x="106.551724" y="164.482759" width="9.655172" height="9.655172" rx="2.413793" ry="2.413793" fill="#c41717" /><rect x="116.206897" y="164.482759" width="9.655172" height="9.655172" rx="2.413793" ry="2.413793" fill="#c41717" /><rect x="125.862069" y="164.482759" width="9.655172" height="9.655172" rx="2.413793" ry="2.413793" fill="#c41717" /><rect x="135.517241" y="164.482759" width="9.655172" height="9.655172" rx="2.413793" ry="2.413793" fill="#c41717" /><rect x="145.172414" y="164.482759" width="9.655172" height="9.655172" rx="2.413793" ry="2.413793" fill="#c41717" /><rect x="154.827586" y="164.482759" width="9.655172" height="9.655172" rx="2.413793" ry="2.413793" fill="#c41717" /><rect x="164.482759" y="164.482759" width="9.655172" height="9.655172" rx="2.413793" ry="2.413793" fill="#c41717" /><rect x="174.137931" y="164.482759" width="9.655172" height="9.655172" rx="2.413793" ry="2.413793" fill="#c41717" /><rect x="183.793103" y="164.482759" width="9.655172" height="9.655172" rx="2.413793" ry="2.413793" fill="#c41717" /><rect x="193.448276" y="164.482759" width="9.655172" height="9.655172" rx="2.413793" ry="2.413793" fill="#c41717" /><rect x="203.103448" y="164.482759" width="9.655172" height="9.655172" rx="2.413793" ry="2.413793" fill="#c41717" /><rect x="212.758621" y="164.482759" width="9.655172" height="9.655172" rx="2.413793" ry="2.413793" fill="#c41717" /><rect x="222.413793" y="164.482759" width="9.655172" height="9.655172" rx="2.413793" ry="2.413793" fill="#c41717" /><rect x="232.068966" y="164.482759" width="9.655172" height="9.655172" rx="2.413793" ry="2.413793" fill="#c41717" /><rect x="241.724138" y="164.482759" width="9.655172" height="9.655172" rx="2.413793" ry="2.413793" fill="#c41717" /><rect x="251.379310" y="164.482759" width="9.655172" height="9.655172" rx="2.413793" ry="2.413793" fill="#c41717" /><rect x="261.034483" y="164.482759" width="9.655172" height="9.655172" rx="2.413793" ry="2.413793" fill="#c41717" /><rect x="270.689655" y="164.482759" width="9.655172" height="9.655172" rx="2.413793" ry="2.413793" fill="#c41717" /><rect x="280.344828" y="164.482759" width="9.655172" height="9.655172" rx="2.413793" ry="2.413793" fill="#c41717" /><rect x="10.000000" y="174.137931" width="9.655172" height="9.655172" rx="2.413793" ry="2.413793" fill="#c41717" /><rect x="19.655172" y="174.137931" width="9.655172" height="9.655172" rx="2.413793" ry="2.413793" fill="#c41717" /><rect x="29.310345" y="174.137931" width="9.655172" height="9.655172" rx="2.413793" ry="2.413793" fill="#c41717" /><rect x="38.965517" y="174.137931" width="9.655172" height="9.655172" rx="2.413793" ry="2.413793" fill="#c41717" /><rect x="48.620690" y="174.137931" width="9.655172" height="9.655172" rx="2.413793" ry="2.413793" fill="#c41717" /><rect x="58.275862" y="174.137931" width="9.655172" height="9.655172" rx="2.413793" ry="2.413793" fill="#c41717" /><rect x="67.931034" y="174.137931" width="9.655172" height="9.655172" rx="2.413793" ry="2.413793" fill="#c41717" /><rect x="77.586207" y="174.137931" width="9.655172" height="9.655172" rx="2.413793" ry="2.413793" fill="#c41717" /><rect x="87.241379" y="174.137931" width="9.655172" height="9.655172" rx="2.413793" ry="2.413793" fill="#c41717" /><rect x="96.896552" y="174.137931" width="9.655172" height="9.655172" rx="2.413793" ry="2.413793" fill="#c41717" /><rect x="106.551724" y="174.137931" width="9.655172" height="9.655172" rx="2.413793" ry="2.413793" fill="#c41717" /><rect x="116.206897" y="174.137931" width="9.655172" height="9.655172" rx="2.413793" ry="2.413793" fill="#c41717" /><rect x="125.862069" y="174.137931" width="9.655172" height="9.655172" rx="2.413793" ry="2.413793" fill="#c41717" /><rect x="135.517241" y="174.137931" width="9.655172" height="9.655172" rx="2.413793" ry="2.413793" fill="#c41717" /><rect x="145.172414" y="174.137931" width="9.655172" height="9.655172" rx="2.413793" ry="2.413793" fill="#c41717" /><rect x="154.827586" y="174.137931" width="9.655172" height="9.655172" rx="2.413793" ry="2.413793" fill="#c41717" /><rect x="164.482759" y="174.137931" width="9.655172" height="9.655172" rx="2.413793" ry="2.413793" fill="#c41717" /><rect x="174.137931" y="174.137931" width="9.655172" height="9.655172" rx="2.413793" ry="2.413793" fill="#c41717" /><rect x="183.793103" y="174.137931" width="9.655172" height="9.655172" rx="2.413793" ry="2.413793" fill="#c41717" /><rect x="193.448276" y="174.137931" width="9.655172" height="9.655172" rx="2.413793" ry="2.413793" fill="#c41717" /><rect x="203.103448" y="174.137931" width="9.655172" height="9.655172" rx="2.413793" ry="2.413793" fill="#c41717" /><rect x="212.758621" y="174.137931" width="9.655172" height="9.655172" rx="2.413793" ry="2.413793" fill="#c41717" /><rect x="222.413793" y="174.137931" width="9.655172" height="9.655172" rx="2.413793" ry="2.413793" fill="#c41717" /><rect x="232.068966" y="174.137931" width="9.655172" height="9.655172" rx="2.413793" ry="2.413793" fill="#c41717" /><rect x="241.724138" y="174.137931" width="9.655172" height="9.655172" rx="2.413793" ry="2.413793" fill="#c41717" /><rect x="251.379310" y="174.137931" width="9.655172" height="9.655172" rx="2.413793" ry="2.413793" fill="#c41717" /><rect x="261.034483" y="174.137931" width="9.655172" height="9.655172" rx="2.413793" ry="2.413793" fill="#c41717" /><rect x="270.689655" y="174.137931" width="9.655172" height="9.655172" rx="2.413793" ry="2.413793" fill="#c41717" /><rect x="280.344828" y="174.137931" width="9.655172" height="9.655172" rx="2.413793" ry="2.413793" fill="#c41717" /><rect x="10.000000" y="183.793103" width="9.655172" height="9.655172" rx="2.413793" ry="2.413793" fill="#c41717" /><rect x="19.655172" y="183.793103" width="9.655172" height="9.655172" rx="2.413793" ry="2.413793" fill="#c41717" /><rect x="29.310345" y="183.793103" width="9.655172" height="9.655172" rx="2.413793" ry="2.413793" fill="#c41717" /><rect x="38.965517" y="183.793103" width="9.655172" height="9.655172" rx="2.413793" ry="2.413793" fill="#c41717" /><rect x="48.620690" y="183.793103" width="9.655172" height="9.655172" rx="2.413793" ry="2.413793" fill="#c41717" /><rect x="58.275862" y="183.793103" width="9.655172" height="9.655172" rx="2.413793" ry="2.413793" fill="#c41717" /><rect x="67.931034" y="183.793103" width="9.655172" height="9.655172" rx="2.413793" ry="2.413793" fill="#c41717" /><rect x="77.586207" y="183.793103" width="9.655172" height="9.655172" rx="2.413793" ry="2.413793" fill="#c41717" /><rect x="87.241379" y="183.793103" width="9.655172" height="9.655172" rx="2.413793" ry="2.413793" fill="#c41717" /><rect x="96.896552" y="183.793103" width="9.655172" height="9.655172" rx="2.413793" ry="2.413793" fill="#c41717" /><rect x="106.551724" y="183.793103" width="9.655172" height="9.655172" rx="2.413793" ry="2.413793" fill="#c41717" /><rect x="116.206897" y="183.793103" width="9.655172" height="9.655172" rx="2.413793" ry="2.413793" fill="#c41717" /><rect x="125.862069" y="183.793103" width="9.655172" height="9.655172" rx="2.413793" ry="2.413793" fill="#c41717" /><rect x="135.517241" y="183.793103" width="9.655172" height="9.655172" rx="2.413793" ry="2.413793" fill="#c41717" /><rect x="145.172414" y="183.793103" width="9.655172" height="9.655172" rx="2.413793" ry="2.413793" fill="#c41717" /><rect x="154.827586" y="183.793103" width="9.655172" height="9.655172" rx="2.413793" ry="2.413793" fill="#c41717" /><rect x="164.482759" y="183.793103" width="9.655172" height="9.655172" rx="2.413793" ry="2.413793" fill="#c41717" /><rect x="174.137931" y="183.793103" width="9.655172" height="9.655172" rx="2.413793" ry="2.413793" fill="#c41717" /><rect x="183.793103" y="183.793103" width="9.655172" height="9.655172" rx="2.413793" ry="2.413793" fill="#c41717" /><rect x="193.448276" y="183.793103" width="9.655172" height="9.655172" rx="2.413793" ry="2.413793" fill="#c41717" /><rect x="203.103448" y="183.793103" width="9.655172" height="9.655172" rx="2.413793" ry="2.413793" fill="#c41717" /><rect x="212.758621" y="183.793103" width="9.655172" height="9.655172" rx="2.413793" ry="2.413793" fill="#c41717" /><rect x="222.413793" y="183.793103" width="9.655172" height="9.655172" rx="2.413793" ry="2.413793" fill="#c41717" /><rect x="232.068966" y="183.793103" width="9.655172" height="9.655172" rx="2.413793" ry="2.413793" fill="#c41717" /><rect x="241.724138" y="183.793103" width="9.655172" height="9.655172" rx="2.413793" ry="2.413793" fill="#c41717" /><rect x="251.379310" y="183.793103" width="9.655172" height="9.655172" rx="2.413793" ry="2.413793" fill="#c41717" /><rect x="261.034483" y="183.793103" width="9.655172" height="9.655172" rx="2.413793" ry="2.413793" fill="#c41717" /><rect x="270.689655" y="183.793103" width="9.655172" height="9.655172" rx="2.413793" ry="2.413793" fill="#c41717" /><rect x="280.344828" y="183.793103" width="9.655172" height="9.655172" rx="2.413793" ry="2.413793" fill="#c41717" /><rect x="10.000000" y="193.448276" width="9.655172" height="9.655172" rx="2.413793" ry="2.413793" fill="#c41717" /><rect x="19.655172" y="193.448276" width="9.655172" height="9.655172" rx="2.413793" ry="2.413793" fill="#c41717" /><rect x="29.310345" y="193.448276" width="9.655172" height="9.655172" rx="2.413793" ry="2.413793" fill="#c41717" /><rect x="38.965517" y="193.448276" width="9.655172" height="9.655172" rx="2.413793" ry="2.413793" fill="#c41717" /><rect x="48.620690" y="193.448276" width="9.655172" height="9.655172" rx="2.413793" ry="2.413793" fill="#c41717" /><rect x="58.275862" y="193.448276" width="9.655172" height="9.655172" rx="2.413793" ry="2.413793" fill="#c41717" /><rect x="67.931034" y="193.448276" width="9.655172" height="9.655172" rx="2.413793" ry="2.413793" fill="#c41717" /><rect x="77.586207" y="193.448276" width="9.655172" height="9.655172" rx="2.413793" ry="2.413793" fill="#c41717" /><rect x="87.241379" y="193.448276" width="9.655172" height="9.655172" rx="2.413793" ry="2.413793" fill="#c41717" /><rect x="96.896552" y="193.448276" width="9.655172" height="9.655172" rx="2.413793" ry="2.413793" fill="#c41717" /><rect x="106.551724" y="193.448276" width="9.655172" height="9.655172" rx="2.413793" ry="2.413793" fill="#c41717" /><rect x="116.206897" y="193.448276" width="9.655172" height="9.655172" rx="2.413793" ry="2.413793" fill="#c41717" /><rect x="125.862069" y="193.448276" width="9.655172" height="9.655172" rx="2.413793" ry="2.413793" fill="#c41717" /><rect x="135.517241" y="193.448276" width="9.655172" height="9.655172" rx="2.413793" ry="2.413793" fill="#c41717" /><rect x="145.172414" y="193.448276" width="9.655172" height="9.655172" rx="2.413793" ry="2.413793" fill="#c41717" /><rect x="154.827586" y="193.448276" width="9.655172" height="9.655172" rx="2.413793" ry="2.413793" fill="#c41717" /><rect x="164.482759" y="193.448276" width="9.655172" height="9.655172" rx="2.413793" ry="2.413793" fill="#c41717" /><rect x="174.137931" y="193.448276" width="9.655172" height="9.655172" rx="2.413793" ry="2.413793" fill="#c41717" /><rect x="183.793103" y="193.448276" width="9.655172" height="9.655172" rx="2.413793" ry="2.413793" fill="#c41717" /><rect x="193.448276" y="193.448276" width="9.655172" height="9.655172" rx="2.413793" ry="2.413793" fill="#c41717" /><rect x="203.103448" y="193.448276" width="9.655172" height="9.655172" rx="2.413793" ry="2.413793" fill="#c41717" /><rect x="212.758621" y="193.448276" width="9.655172" height="9.655172" rx="2.413793" ry="2.413793" fill="#c41717" /><rect x="222.413793" y="193.448276" width="9.655172" height="9.655172" rx="2.413793" ry="2.413793" fill="#c41717" /><rect x="232.068966" y="193.448276" width="9.655172" height="9.655172" rx="2.413793" ry="2.413793" fill="#c41717" /><rect x="241.724138" y="193.448276" width="9.655172" height="9.655172" rx="2.413793" ry="2.413793" fill="#c41717" /><rect x="251.379310" y="193.448276" width="9.655172" height="9.655172" rx="2.413793" ry="2.413793" fill="#c41717" /><rect x="261.034483" y="193.448276" width="9.655172" height="9.655172" rx="2.413793" ry="2.413793" fill="#c41717" /><rect x="270.689655" y="193.448276" width="9.655172" height="9.655172" rx="2.413793" ry="2.413793" fill="#c41717" /><rect x="280.344828" y="193.448276" width="9.655172" height="9.655172" rx="2.413793" ry="2.413793" fill="#c41717" /><rect x="10.000000" y="203.103448" width="9.655172" height="9.655172" rx="2.413793" ry="2.413793" fill="#c41717" /><rect x="19.655172" y="203.103448" width="9.655172" height="9.655172" rx="2.413793" ry="2.413793" fill="#c41717" /><rect x="29.310345" y="203.103448" width="9.655172" height="9.655172" rx="2.413793" ry="2.413793" fill="#c41717" /><rect x="38.965517" y="203.103448" width="9.655172" height="9.655172" rx="2.413793" ry="2.413793" fill="#c41717" /><rect x="48.620690" y="203.103448" width="9.655172" height="9.655172" rx="2.413793" ry="2.413793" fill="#c41717" /><rect x="58.275862" y="203.103448" width="9.655172" height="9.655172" rx="2.413793" ry="2.413793" fill="#c41717" /><rect x="67.931034" y="203.103448" width="9.655172" height="9.655172" rx="2.413793" ry="2.413793" fill="#c41717" /><rect x="77.586207" y="203.103448" width="9.655172" height="9.655172" rx="2.413793" ry="2.413793" fill="#c41717" /><rect x="87.241379" y="203.103448" width="9.655172" height="9.655172" rx="2.413793" ry="2.413793" fill="#c41717" /><rect x="96.896552" y="203.103448" width="9.655172" height="9.655172" rx="2.413793" ry="2.413793" fill="#c41717" /><rect x="106.551724" y="203.103448" width="9.655172" height="9.655172" rx="2.413793" ry="2.413793" fill="#c41717" /><rect x="116.206897" y="203.103448" width="9.655172" height="9.655172" rx="2.413793" ry="2.413793" fill="#c41717" /><rect x="125.862069" y="203.103448" width="9.655172" height="9.655172" rx="2.413793" ry="2.413793" fill="#c41717" /><rect x="135.517241" y="203.103448" width="9.655172" height="9.655172" rx="2.413793" ry="2.413793" fill="#c41717" /><rect x="145.172414" y="203.103448" width="9.655172" height="9.655172" rx="2.413793" ry="2.413793" fill="#c41717" /><rect x="154.827586" y="203.103448" width="9.655172" height="9.655172" rx="2.413793" ry="2.413793" fill="#c41717" /><rect x="164.482759" y="203.103448" width="9.655172" height="9.655172" rx="2.413793" ry="2.413793" fill="#c41717" /><rect x="174.137931" y="203.103448" width="9.655172" height="9.655172" rx="2.413793" ry="2.413793" fill="#c41717" /><rect x="183.793103" y="203.103448" width="9.655172" height="9.655172" rx="2.413793" ry="2.413793" fill="#c41717" /><rect x="193.448276" y="203.103448" width="9.655172" height="9.655172" rx="2.413793" ry="2.413793" fill="#c41717" /><rect x="203.103448" y="203.103448" width="9.655172" height="9.655172" rx="2.413793" ry="2.413793" fill="#c41717" /><rect x="212.758621" y="203.103448" width="9.655172" height="9.655172" rx="2.413793" ry="2.413793" fill="#c41717" /><rect x="222.413793" y="203.103448" width="9.655172" height="9.655172" rx="2.413793" ry="2.413793" fill="#c41717" /><rect x="232.068966" y="203.103448" width="9.655172" height="9.655172" rx="2.413793" ry="2.413793" fill="#c41717" /><rect x="241.724138" y="203.103448" width="9.655172" height="9.655172" rx="2.413793" ry="2.413793" fill="#c41717" /><rect x="251.379310" y="203.103448" width="9.655172" height="9.655172" rx="2.413793" ry="2.413793" fill="#c41717" /><rect x="261.034483" y="203.103448" width="9.655172" height="9.655172" rx="2.413793" ry="2.413793" fill="#c41717" /><rect x="270.689655" y="203.103448" width="9.655172" height="9.655172" rx="2.413793" ry="2.413793" fill="#c41717" /><rect x="280.344828" y="203.103448" width="9.655172" height="9.655172" rx="2.413793" ry="2.413793" fill="#c41717" /><rect x="10.000000" y="212.758621" width="9.655172" height="9.655172" rx="2.413793" ry="2.413793" fill="#c41717" /><rect x="19.655172" y="212.758621" width="9.655172" height="9.655172" rx="2.413793" ry="2.413793" fill="#c41717" /><rect x="29.310345" y="212.758621" width="9.655172" height="9.655172" rx="2.413793" ry="2.413793" fill="#c41717" /><rect x="38.965517" y="212.758621" width="9.655172" height="9.655172" rx="2.413793" ry="2.413793" fill="#c41717" /><rect x="48.620690" y="212.758621" width="9.655172" height="9.655172" rx="2.413793" ry="2.413793" fill="#c41717" /><rect x="58.275862" y="212.758621" width="9.655172" height="9.655172" rx="2.413793" ry="2.413793" fill="#c41717" /><rect x="67.931034" y="212.758621" width="9.655172" height="9.655172" rx="2.413793" ry="2.413793" fill="#c41717" /><rect x="77.586207" y="212.758621" width="9.655172" height="9.655172" rx="2.413793" ry="2.413793" fill="#c41717" /><rect x="87.241379" y="212.758621" width="9.655172" height="9.655172" rx="2.413793" ry="2.413793" fill="#c41717" /><rect x="96.896552" y="212.758621" width="9.655172" height="9.655172" rx="2.413793" ry="2.413793" fill="#c41717" /><rect x="106.551724" y="212.758621" width="9.655172" height="9.655172" rx="2.413793" ry="2.413793" fill="#c41717" /><rect x="116.206897" y="212.758621" width="9.655172" height="9.655172" rx="2.413793" ry="2.413793" fill="#c41717" /><rect x="125.862069" y="212.758621" width="9.655172" height="9.655172" rx="2.413793" ry="2.413793" fill="#c41717" /><rect x="135.517241" y="212.758621" width="9.655172" height="9.655172" rx="2.413793" ry="2.413793" fill="#c41717" /><rect x="145.172414" y="212.758621" width="9.655172" height="9.655172" rx="2.413793" ry="2.413793" fill="#c41717" /><rect x="154.827586" y="212.758621" width="9.655172" height="9.655172" rx="2.413793" ry="2.413793" fill="#c41717" /><rect x="164.482759" y="212.758621" width="9.655172" height="9.655172" rx="2.413793" ry="2.413793" fill="#c41717" /><rect x="174.137931" y="212.758621" width="9.655172" height="9.655172" rx="2.413793" ry="2.413793" fill="#c41717" /><rect x="183.793103" y="212.758621" width="9.655172" height="9.655172" rx="2.413793" ry="2.413793" fill="#c41717" /><rect x="193.448276" y="212.758621" width="9.655172" height="9.655172" rx="2.413793" ry="2.413793" fill="#c41717" /><rect x="203.103448" y="212.758621" width="9.655172" height="9.655172" rx="2.413793" ry="2.413793" fill="#c41717" /><rect x="212.758621" y="212.758621" width="9.655172" height="9.655172" rx="2.413793" ry="2.413793" fill="#c41717" /><rect x="222.413793" y="212.758621" width="9.655172" height="9.655172" rx="2.413793" ry="2.413793" fill="#c41717" /><rect x="232.068966" y="212.758621" width="9.655172" height="9.655172" rx="2.413793" ry="2.413793" fill="#c41717" /><rect x="241.724138" y="212.758621" width="9.655172" height="9.655172" rx="2.413793" ry="2.413793" fill="#c41717" /><rect x="251.379310" y="212.758621" width="9.655172" height="9.655172" rx="2.413793" ry="2.413793" fill="#c41717" /><rect x="261.034483" y="212.758621" width="9.655172" height="9.655172" rx="2.413793" ry="2.413793" fill="#c41717" /><rect x="270.689655" y="212.758621" width="9.655172" height="9.655172" rx="2.413793" ry="2.413793" fill="#c41717" /><rect x="280.344828" y="212.758621" width="9.655172" height="9.655172" rx="2.413793" ry="2.413793" fill="#c41717" /><rect x="77.586207" y="222.413793" width="9.655172" height="9.655172" rx="2.413793" ry="2.413793" fill="#c41717" /><rect x="87.241379" y="222.413793" width="9.655172" height="9.655172" rx="2.413793" ry="2.413793" fill="#c41717" /><rect x="96.896552" y="222.413793" width="9.655172" height="9.655172" rx="2.413793" ry="2.413793" fill="#c41717" /><rect x="106.551724" y="222.413793" width="9.655172" height="9.655172" rx="2.413793" ry="2.413793" fill="#c41717" /><rect x="116.206897" y="222.413793" width="9.655172" height="9.655172" rx="2.413793" ry="2.413793" fill="#c41717" /><rect x="125.862069" y="222.413793" width="9.655172" height="9.655172" rx="2.413793" ry="2.413793" fill="#c41717" /><rect x="135.517241" y="222.413793" width="9.655172" height="9.655172" rx="2.413793" ry="2.413793" fill="#c41717" /><rect x="145.172414" y="222.413793" width="9.655172" height="9.655172" rx="2.413793" ry="2.413793" fill="#c41717" /><rect x="154.827586" y="222.413793" width="9.655172" height="9.655172" rx="2.413793" ry="2.413793" fill="#c41717" /><rect x="164.482759" y="222.413793" width="9.655172" height="9.655172" rx="2.413793" ry="2.413793" fill="#c41717" /><rect x="174.137931" y="222.413793" width="9.655172" height="9.655172" rx="2.413793" ry="2.413793" fill="#c41717" /><rect x="183.793103" y="222.413793" width="9.655172" height="9.655172" rx="2.413793" ry="2.413793" fill="#c41717" /><rect x="193.448276" y="222.413793" width="9.655172" height="9.655172" rx="2.413793" ry="2.413793" fill="#c41717" /><rect x="203.103448" y="222.413793" width="9.655172" height="9.655172" rx="2.413793" ry="2.413793" fill="#c41717" /><rect x="212.758621" y="222.413793" width="9.655172" height="9.655172" rx="2.413793" ry="2.413793" fill="#c41717" /><rect x="222.413793" y="222.413793" width="9.655172" height="9.655172" rx="2.413793" ry="2.413793" fill="#c41717" /><rect x="232.068966" y="222.413793" width="9.655172" height="9.655172" rx="2.413793" ry="2.413793" fill="#c41717" /><rect x="241.724138" y="222.413793" width="9.655172" height="9.655172" rx="2.413793" ry="2.413793" fill="#c41717" /><rect x="251.379310" y="222.413793" width="9.655172" height="9.655172" rx="2.413793" ry="2.413793" fill="#c41717" /><rect x="261.034483" y="222.413793" width="9.655172" height="9.655172" rx="2.413793" ry="2.413793" fill="#c41717" /><rect x="270.689655" y="222.413793" width="9.655172" height="9.655172" rx="2.413793" ry="2.413793" fill="#c41717" /><rect x="280.344828" y="222.413793" width="9.655172" height="9.655172" rx="2.413793" ry="2.413793" fill="#c41717" /><rect x="77.586207" y="232.068966" width="9.655172" height="9.655172" rx="2.413793" ry="2.413793" fill="#c41717" /><rect x="87.241379" y="232.068966" width="9.655172" height="9.655172" rx="2.413793" ry="2.413793" fill="#c41717" /><rect x="96.896552" y="232.068966" width="9.655172" height="9.655172" rx="2.413793" ry="2.413793" fill="#c41717" /><rect x="106.551724" y="232.068966" width="9.655172" height="9.655172" rx="2.413793" ry="2.413793" fill="#c41717" /><rect x="116.206897" y="232.068966" width="9.655172" height="9.655172" rx="2.413793" ry="2.413793" fill="#c41717" /><rect x="125.862069" y="232.068966" width="9.655172" height="9.655172" rx="2.413793" ry="2.413793" fill="#c41717" /><rect x="135.517241" y="232.068966" width="9.655172" height="9.655172" rx="2.413793" ry="2.413793" fill="#c41717" /><rect x="145.172414" y="232.068966" width="9.655172" height="9.655172" rx="2.413793" ry="2.413793" fill="#c41717" /><rect x="154.827586" y="232.068966" width="9.655172" height="9.655172" rx="2.413793" ry="2.413793" fill="#c41717" /><rect x="164.482759" y="232.068966" width="9.655172" height="9.655172" rx="2.413793" ry="2.413793" fill="#c41717" /><rect x="174.137931" y="232.068966" width="9.655172" height="9.655172" rx="2.413793" ry="2.413793" fill="#c41717" /><rect x="183.793103" y="232.068966" width="9.655172" height="9.655172" rx="2.413793" ry="2.413793" fill="#c41717" /><rect x="193.448276" y="232.068966" width="9.655172" height="9.655172" rx="2.413793" ry="2.413793" fill="#c41717" /><rect x="203.103448" y="232.068966" width="9.655172" height="9.655172" rx="2.413793" ry="2.413793" fill="#c41717" /><rect x="212.758621" y="232.068966" width="9.655172" height="9.655172" rx="2.413793" ry="2.413793" fill="#c41717" /><rect x="222.413793" y="232.068966" width="9.655172" height="9.655172" rx="2.413793" ry="2.413793" fill="#c41717" /><rect x="232.068966" y="232.068966" width="9.655172" height="9.655172" rx="2.413793" ry="2.413793" fill="#c41717" /><rect x="241.724138" y="232.068966" width="9.655172" height="9.655172" rx="2.413793" ry="2.413793" fill="#c41717" /><rect x="251.379310" y="232.068966" width="9.655172" height="9.655172" rx="2.413793" ry="2.413793" fill="#c41717" /><rect x="261.034483" y="232.068966" width="9.655172" height="9.655172" rx="2.413793" ry="2.413793" fill="#c41717" /><rect x="270.689655" y="232.068966" width="9.655172" height="9.655172" rx="2.413793" ry="2.413793" fill="#c41717" /><rect x="280.344828" y="232.068966" width="9.655172" height="9.655172" rx="2.413793" ry="2.413793" fill="#c41717" /><rect x="77.586207" y="241.724138" width="9.655172" height="9.655172" rx="2.413793" ry="2.413793" fill="#c41717" /><rect x="87.241379" y="241.724138" width="9.655172" height="9.655172" rx="2.413793" ry="2.413793" fill="#c41717" /><rect x="96.896552" y="241.724138" width="9.655172" height="9.655172" rx="2.413793" ry="2.413793" fill="#c41717" /><rect x="106.551724" y="241.724138" width="9.655172" height="9.655172" rx="2.413793" ry="2.413793" fill="#c41717" /><rect x="116.206897" y="241.724138" width="9.655172" height="9.655172" rx="2.413793" ry="2.413793" fill="#c41717" /><rect x="125.862069" y="241.724138" width="9.655172" height="9.655172" rx="2.413793" ry="2.413793" fill="#c41717" /><rect x="135.517241" y="241.724138" width="9.655172" height="9.655172" rx="2.413793" ry="2.413793" fill="#c41717" /><rect x="145.172414" y="241.724138" width="9.655172" height="9.655172" rx="2.413793" ry="2.413793" fill="#c41717" /><rect x="154.827586" y="241.724138" width="9.655172" height="9.655172" rx="2.413793" ry="2.413793" fill="#c41717" /><rect x="164.482759" y="241.724138" width="9.655172" height="9.655172" rx="2.413793" ry="2.413793" fill="#c41717" /><rect x="174.137931" y="241.724138" width="9.655172" height="9.655172" rx="2.413793" ry="2.413793" fill="#c41717" /><rect x="183.793103" y="241.724138" width="9.655172" height="9.655172" rx="2.413793" ry="2.413793" fill="#c41717" /><rect x="193.448276" y="241.724138" width="9.655172" height="9.655172" rx="2.413793" ry="2.413793" fill="#c41717" /><rect x="203.103448" y="241.724138" width="9.655172" height="9.655172" rx="2.413793" ry="2.413793" fill="#c41717" /><rect x="212.758621" y="241.724138" width="9.655172" height="9.655172" rx="2.413793" ry="2.413793" fill="#c41717" /><rect x="222.413793" y="241.724138" width="9.655172" height="9.655172" rx="2.413793" ry="2.413793" fill="#c41717" /><rect x="232.068966" y="241.724138" width="9.655172" height="9.655172" rx="2.413793" ry="2.413793" fill="#c41717" /><rect x="241.724138" y="241.724138" width="9.655172" height="9.655172" rx="2.413793" ry="2.413793" fill="#c41717" /><rect x="251.379310" y="241.724138" width="9.655172" height="9.655172" rx="2.413793" ry="2.413793" fill="#c41717" /><rect x="261.034483" y="241.724138" width="9.655172" height="9.655172" rx="2.413793" ry="2.413793" fill="#c41717" /><rect x="270.689655" y="241.724138" width="9.655172" height="9.655172" rx="2.413793" ry="2.413793" fill="#c41717" /><rect x="280.344828" y="241.724138" width="9.655172" height="9.655172" rx="2.413793" ry="2.413793" fill="#c41717" /><rect x="77.586207" y="251.379310" width="9.655172" height="9.655172" rx="2.413793" ry="2.413793" fill="#c41717" /><rect x="87.241379" y="251.379310" width="9.655172" height="9.655172" rx="2.413793" ry="2.413793" fill="#c41717" /><rect x="96.896552" y="251.379310" width="9.655172" height="9.655172" rx="2.413793" ry="2.413793" fill="#c41717" /><rect x="106.551724" y="251.379310" width="9.655172" height="9.655172" rx="2.413793" ry="2.413793" fill="#c41717" /><rect x="116.206897" y="251.379310" width="9.655172" height="9.655172" rx="2.413793" ry="2.413793" fill="#c41717" /><rect x="125.862069" y="251.379310" width="9.655172" height="9.655172" rx="2.413793" ry="2.413793" fill="#c41717" /><rect x="135.517241" y="251.379310" width="9.655172" height="9.655172" rx="2.413793" ry="2.413793" fill="#c41717" /><rect x="145.172414" y="251.379310" width="9.655172" height="9.655172" rx="2.413793" ry="2.413793" fill="#c41717" /><rect x="154.827586" y="251.379310" width="9.655172" height="9.655172" rx="2.413793" ry="2.413793" fill="#c41717" /><rect x="164.482759" y="251.379310" width="9.655172" height="9.655172" rx="2.413793" ry="2.413793" fill="#c41717" /><rect x="174.137931" y="251.379310" width="9.655172" height="9.655172" rx="2.413793" ry="2.413793" fill="#c41717" /><rect x="183.793103" y="251.379310" width="9.655172" height="9.655172" rx="2.413793" ry="2.413793" fill="#c41717" /><rect x="193.448276" y="251.379310" width="9.655172" height="9.655172" rx="2.413793" ry="2.413793" fill="#c41717" /><rect x="203.103448" y="251.379310" width="9.655172" height="9.655172" rx="2.413793" ry="2.413793" fill="#c41717" /><rect x="212.758621" y="251.379310" width="9.655172" height="9.655172" rx="2.413793" ry="2.413793" fill="#c41717" /><rect x="222.413793" y="251.379310" width="9.655172" height="9.655172" rx="2.413793" ry="2.413793" fill="#c41717" /><rect x="232.068966" y="251.379310" width="9.655172" height="9.655172" rx="2.413793" ry="2.413793" fill="#c41717" /><rect x="241.724138" y="251.379310" width="9.655172" height="9.655172" rx="2.413793" ry="2.413793" fill="#c41717" /><rect x="251.379310" y="251.379310" width="9.655172" height="9.655172" rx="2.413793" ry="2.413793" fill="#c41717" /><rect x="261.034483" y="251.379310" width="9.655172" height="9.655172" rx="2.413793" ry="2.413793" fill="#c41717" /><rect x="270.689655" y="251.379310" width="9.655172" height="9.655172" rx="2.413793" ry="2.413793" fill="#c41717" /><rect x="280.344828" y="251.379310" width="9.655172" height="9.655172" rx="2.413793" ry="2.413793" fill="#c41717" /><rect x="77.586207" y="261.034483" width="9.655172" height="9.655172" rx="2.413793" ry="2.413793" fill="#c41717" /><rect x="87.241379" y="261.034483" width="9.655172" height="9.655172" rx="2.413793" ry="2.413793" fill="#c41717" /><rect x="96.896552" y="261.034483" width="9.655172" height="9.655172" rx="2.413793" ry="2.413793" fill="#c41717" /><rect x="106.551724" y="261.034483" width="9.655172" height="9.655172" rx="2.413793" ry="2.413793" fill="#c41717" /><rect x="116.206897" y="261.034483" width="9.655172" height="9.655172" rx="2.413793" ry="2.413793" fill="#c41717" /><rect x="125.862069" y="261.034483" width="9.655172" height="9.655172" rx="2.413793" ry="2.413793" fill="#c41717" /><rect x="135.517241" y="261.034483" width="9.655172" height="9.655172" rx="2.413793" ry="2.413793" fill="#c41717" /><rect x="145.172414" y="261.034483" width="9.655172" height="9.655172" rx="2.413793" ry="2.413793" fill="#c41717" /><rect x="154.827586" y="261.034483" width="9.655172" height="9.655172" rx="2.413793" ry="2.413793" fill="#c41717" /><rect x="164.482759" y="261.034483" width="9.655172" height="9.655172" rx="2.413793" ry="2.413793" fill="#c41717" /><rect x="174.137931" y="261.034483" width="9.655172" height="9.655172" rx="2.413793" ry="2.413793" fill="#c41717" /><rect x="183.793103" y="261.034483" width="9.655172" height="9.655172" rx="2.413793" ry="2.413793" fill="#c41717" /><rect x="193.448276" y="261.034483" width="9.655172" height="9.655172" rx="2.413793" ry="2.413793" fill="#c41717" /><rect x="203.103448" y="261.034483" width="9.655172" height="9.655172" rx="2.413793" ry="2.413793" fill="#c41717" /><rect x="212.758621" y="261.034483" width="9.655172" height="9.655172" rx="2.413793" ry="2.413793" fill="#c41717" /><rect x="222.413793" y="261.034483" width="9.655172" height="9.655172" rx="2.413793" ry="2.413793" fill="#c41717" /><rect x="232.068966" y="261.034483" width="9.655172" height="9.655172" rx="2.413793" ry="2.413793" fill="#c41717" /><rect x="241.724138" y="261.034483" width="9.655172" height="9.655172" rx="2.413793" ry="2.413793" fill="#c41717" /><rect x="251.379310" y="261.034483" width="9.655172" height="9.655172" rx="2.413793" ry="2.413793" fill="#c41717" /><rect x="261.034483" y="261.034483" width="9.655172" height="9.655172" rx="2.413793" ry="2.413793" fill="#c41717" /><rect x="270.689655" y="261.034483" width="9.655172" height="9.655172" rx="2.413793" ry="2.413793" fill="#c41717" /><rect x="280.344828" y="261.034483" width="9.655172" height="9.655172" rx="2.413793" ry="2.413793" fill="#c41717" /><rect x="77.586207" y="270.689655" width="9.655172" height="9.655172" rx="2.413793" ry="2.413793" fill="#c41717" /><rect x="87.241379" y="270.689655" width="9.655172" height="9.655172" rx="2.413793" ry="2.413793" fill="#c41717" /><rect x="96.896552" y="270.689655" width="9.655172" height="9.655172" rx="2.413793" ry="2.413793" fill="#c41717" /><rect x="106.551724" y="270.689655" width="9.655172" height="9.655172" rx="2.413793" ry="2.413793" fill="#c41717" /><rect x="116.206897" y="270.689655" width="9.655172" height="9.655172" rx="2.413793" ry="2.413793" fill="#c41717" /><rect x="125.862069" y="270.689655" width="9.655172" height="9.655172" rx="2.413793" ry="2.413793" fill="#c41717" /><rect x="135.517241" y="270.689655" width="9.655172" height="9.655172" rx="2.413793" ry="2.413793" fill="#c41717" /><rect x="145.172414" y="270.689655" width="9.655172" height="9.655172" rx="2.413793" ry="2.413793" fill="#c41717" /><rect x="154.827586" y="270.689655" width="9.655172" height="9.655172" rx="2.413793" ry="2.413793" fill="#c41717" /><rect x="164.482759" y="270.689655" width="9.655172" height="9.655172" rx="2.413793" ry="2.413793" fill="#c41717" /><rect x="174.137931" y="270.689655" width="9.655172" height="9.655172" rx="2.413793" ry="2.413793" fill="#c41717" /><rect x="183.793103" y="270.689655" width="9.655172" height="9.655172" rx="2.413793" ry="2.413793" fill="#c41717" /><rect x="193.448276" y="270.689655" width="9.655172" height="9.655172" rx="2.413793" ry="2.413793" fill="#c41717" /><rect x="203.103448" y="270.689655" width="9.655172" height="9.655172" rx="2.413793" ry="2.413793" fill="#c41717" /><rect x="212.758621" y="270.689655" width="9.655172" height="9.655172" rx="2.413793" ry="2.413793" fill="#c41717" /><rect x="222.413793" y="270.689655" width="9.655172" height="9.655172" rx="2.413793" ry="2.413793" fill="#c41717" /><rect x="232.068966" y="270.689655" width="9.655172" height="9.655172" rx="2.413793" ry="2.413793" fill="#c41717" /><rect x="241.724138" y="270.689655" width="9.655172" height="9.655172" rx="2.413793" ry="2.413793" fill="#c41717" /><rect x="251.379310" y="270.689655" width="9.655172" height="9.655172" rx="2.413793" ry="2.413793" fill="#c41717" /><rect x="261.034483" y="270.689655" width="9.655172" height="9.655172" rx="2.413793" ry="2.413793" fill="#c41717" /><rect x="270.689655" y="270.689655" width="9.655172" height="9.655172" rx="2.413793" ry="2.413793" fill="#c41717" /><rect x="280.344828" y="270.689655" width="9.655172" height="9.655172" rx="2.413793" ry="2.413793" fill="#c41717" /><rect x="77.586207" y="280.344828" width="9.655172" height="9.655172" rx="2.413793" ry="2.413793" fill="#c41717" /><rect x="87.241379" y="280.344828" width="9.655172" height="9.655172" rx="2.413793" ry="2.413793" fill="#c41717" /><rect x="96.896552" y="280.344828" width="9.655172" height="9.655172" rx="2.413793" ry="2.413793" fill="#c41717" /><rect x="106.551724" y="280.344828" width="9.655172" height="9.655172" rx="2.413793" ry="2.413793" fill="#c41717" /><rect x="116.206897" y="280.344828" width="9.655172" height="9.655172" rx="2.413793" ry="2.413793" fill="#c41717" /><rect x="125.862069" y="280.344828" width="9.655172" height="9.655172" rx="2.413793" ry="2.413793" fill="#c41717" /><rect x="135.517241" y="280.344828" width="9.655172" height="9.655172" rx="2.413793" ry="2.413793" fill="#c41717" /><rect x="145.172414" y="280.344828" width="9.655172" height="9.655172" rx="2.413793" ry="2.413793" fill="#c41717" /><rect x="154.827586" y="280.344828" width="9.655172" height="9.655172" rx="2.413793" ry="2.413793" fill="#c41717" /><rect x="164.482759" y="280.344828" width="9.655172" height="9.655172" rx="2.413793" ry="2.413793" fill="#c41717" /><rect x="174.137931" y="280.344828" width="9.655172" height="9.655172" rx="2.413793" ry="2.413793" fill="#c41717" /><rect x="183.793103" y="280.344828" width="9.655172" height="9.655172" rx="2.413793" ry="2.413793" fill="#c41717" /><rect x="193.448276" y="280.344828" width="9.655172" height="9.655172" rx="2.413793" ry="2.413793" fill="#c41717" /><rect x="203.103448" y="280.344828" width="9.655172" height="9.655172" rx="2.413793" ry="2.413793" fill="#c41717" /><rect x="212.758621" y="280.344828" width="9.655172" height="9.655172" rx="2.413793" ry="2.413793" fill="#c41717" /><rect x="222.413793" y="280.344828" width="9.655172" height="9.655172" rx="2.413793" ry="2.413793" fill="#c41717" /><rect x="232.068966" y="280.344828" width="9.655172" height="9.655172" rx="2.413793" ry="2.413793" fill="#c41717" /><rect x="241.724138" y="280.344828" width="9.655172" height="9.655172" rx="2.413793" ry="2.413793" fill="#c41717" /><rect x="251.379310" y="280.344828" width="9.655172" height="9.655172" rx="2.413793" ry="2.413793" fill="#c41717" /><rect x="261.034483" y="280.344828" width="9.655172" height="9.655172" rx="2.413793" ry="2.413793" fill="#c41717" /><rect x="270.689655" y="280.344828" width="9.655172" height="9.655172" rx="2.413793" ry="2.413793" fill="#c41717" /><rect x="280.344828" y="280.344828" width="9.655172" height="9.655172" rx="2.413793" ry="2.413793" fill="#c41717" /><rect x="10.000000" y="10.000000" width="67.586207" height="67.586207" fill="#000000"/><rect x="10.000000" y="222.413793" width="67.586207" height="67.586207" fill="#000000"/><rect x="222.413793" y="10.000000" width="67.586207" height="67.586207" fill="#000000"/></svg>